<?xml version="1.0" encoding="UTF-8"?>
<svg width="397px" height="311px" viewBox="0 0 397 311" version="1.1" xmlns="http://www.w3.org/2000/svg" xmlns:xlink="http://www.w3.org/1999/xlink">
    <title>Group</title>
    <g id="Page-1" stroke="none" stroke-width="1" fill="none" fill-rule="evenodd">
        <g id="Group" transform="translate(0.000000, 0.949997)" fill-rule="nonzero">
            <path d="M64.5999985,218.058685 C66.3330099,216.325673 68.6255213,215.334167 71.0555328,215.334167 L395.683006,215.334167 C399.926012,215.334167 402.047518,220.354183 399.069512,223.3322 L334.469512,287.9322 C332.736501,289.665212 330.443989,290.656718 328.013978,290.656718 L3.38650444,290.656718 C-0.856501421,290.656718 -2.97800782,285.636702 0.0999981963,282.658685 L64.5999985,218.058685 Z" id="Path" fill="#9945FF"></path>
            <path d="M64.5999985,22.7249973 C66.3629954,20.9919858 68.6555069,20.0004802 71.0555328,20.0004802 L395.683006,20.0004802 C399.926012,20.0004802 402.047518,25.0204959 399.069512,28.0985134 L334.469512,92.698513 C332.736501,94.4315245 330.443989,95.4230301 328.013978,95.4230301 L3.38650444,95.4230301 C-0.856501421,95.4230301 -2.97800782,90.4030144 0.0999981963,87.4249969 L64.5999985,22.7249973 Z" id="Path" fill="#00FFA3"></path>
            <path d="M334.469512,120.191842 C332.736501,118.458831 330.443989,117.467325 328.013978,117.467325 L3.38650444,117.467325 C-0.856501421,117.467325 -2.97800782,122.487341 0.0999981963,125.465358 L64.5999985,190.065358 C66.3330099,191.79837 68.6255213,192.789876 71.0555328,192.789876 L395.683006,192.789876 C399.926012,192.789876 402.047518,187.76986 399.069512,184.791842 L334.469512,120.191842 Z" id="Path" fill="#00FFA3"></path>
        </g>
    </g>
</svg>